<?xml version="1.0" standalone="no"?>
<!DOCTYPE svg PUBLIC "-//W3C//DTD SVG 20010904//EN"
 "http://www.w3.org/TR/2001/REC-SVG-20010904/DTD/svg10.dtd">
<svg version="1.0" xmlns="http://www.w3.org/2000/svg"
 width="1876.000000pt" height="1876.000000pt" viewBox="0 0 1876.000000 1876.000000"
 preserveAspectRatio="xMidYMid meet">
<metadata>
Created by potrace 1.11, written by Peter Selinger 2001-2013
</metadata>
<g transform="translate(0.000000,1876.000000) scale(0.100000,-0.100000)"
fill="#000000" stroke="none">
<path d="M8633 15454 c-1118 -1124 -2003 -2015 -2392 -2410 -189 -192 -441
-447 -560 -568 l-216 -218 -245 -163 c-135 -89 -474 -314 -755 -500 -280 -186
-627 -416 -770 -510 -247 -163 -1046 -693 -1630 -1081 -148 -98 -274 -181
-280 -183 -5 -2 -12 -7 -15 -10 -11 -14 -265 -175 -475 -301 -121 -73 -226
-138 -233 -145 -11 -10 -3 -19 43 -46 137 -81 394 -245 760 -486 176 -115 401
-263 500 -328 240 -158 449 -295 685 -450 189 -125 363 -239 715 -470 94 -61
244 -160 335 -220 91 -60 244 -160 340 -223 96 -63 252 -165 345 -227 94 -62
285 -187 425 -280 l255 -168 561 -561 c781 -781 3309 -3287 3325 -3297 4 -2
154 140 334 316 180 176 360 352 400 390 40 39 191 185 335 325 144 140 294
286 334 324 100 97 613 595 711 691 45 44 225 220 401 392 565 552 606 592
1029 1008 400 393 423 414 553 499 76 50 270 177 432 284 162 107 374 246 470
309 96 63 292 192 436 286 143 95 317 209 385 253 68 45 223 147 344 226 121
80 272 178 335 220 63 41 237 155 385 253 149 98 326 215 395 260 69 45 224
147 345 227 247 162 369 240 598 383 86 54 157 101 157 104 0 3 -17 15 -38 27
-20 11 -131 78 -247 148 -218 133 -261 161 -1075 702 -272 181 -500 331 -505
334 -6 3 -222 145 -480 317 -259 172 -623 413 -810 537 -187 123 -345 229
-350 234 -6 5 -15 11 -20 13 -6 2 -211 137 -456 300 l-446 296 -199 202 c-109
111 -270 275 -357 364 -317 324 -1553 1571 -2444 2466 l-913 916 -757 -761z
m857 394 c19 -6 53 -22 74 -36 21 -13 377 -361 790 -772 1188 -1183 2414
-2395 2471 -2444 62 -53 8 -22 -208 120 -122 81 -305 202 -407 269 -102 67
-266 175 -365 240 -99 65 -299 197 -445 293 -146 97 -335 221 -420 277 -85 56
-270 177 -410 270 -140 93 -334 220 -430 283 -96 63 -199 131 -228 151 -29 20
-61 41 -70 46 -46 28 -161 106 -195 134 -114 90 -301 97 -423 14 -23 -15 -187
-125 -365 -244 -280 -186 -542 -360 -1249 -828 -80 -53 -149 -98 -155 -100 -5
-2 -14 -8 -20 -13 -5 -5 -134 -91 -285 -191 -547 -361 -899 -594 -1117 -738
-122 -81 -228 -150 -235 -154 -7 -4 118 122 277 280 640 633 1876 1860 2481
2462 463 461 654 644 687 661 80 40 164 47 247 20z m45 -1223 c21 -9 57 -32
80 -50 22 -18 101 -72 175 -120 74 -49 201 -133 283 -187 81 -54 151 -98 156
-98 5 0 11 -3 13 -7 2 -5 55 -42 118 -83 63 -41 117 -78 118 -82 2 -5 8 -8 12
-8 5 0 62 -35 127 -78 65 -44 206 -137 313 -207 243 -160 577 -380 820 -540
273 -180 693 -457 870 -573 621 -407 565 -366 816 -609 126 -122 272 -263 324
-313 351 -338 1176 -1149 1744 -1715 272 -271 378 -382 394 -416 44 -93 48
-184 11 -286 -20 -56 -53 -90 -793 -828 -684 -683 -1399 -1388 -1691 -1669
-82 -79 -146 -126 -350 -258 -137 -89 -299 -194 -360 -234 -60 -39 -198 -127
-305 -196 -107 -69 -253 -163 -325 -210 -71 -46 -164 -106 -205 -133 -81 -52
-264 -170 -388 -250 -42 -28 -160 -104 -262 -169 -102 -66 -234 -152 -295
-191 -185 -120 -289 -187 -580 -374 -154 -99 -287 -185 -295 -191 -8 -5 -67
-43 -130 -84 -63 -41 -175 -114 -248 -163 -192 -127 -204 -133 -269 -139 -64
-6 -158 21 -191 56 -19 20 -252 177 -294 199 -16 7 -28 17 -28 22 0 5 -6 9
-13 9 -8 0 -22 9 -32 20 -10 11 -22 20 -26 20 -4 0 -104 64 -221 142 -219 146
-658 436 -1063 703 -126 83 -392 259 -590 391 -198 131 -372 245 -387 252 -16
8 -28 18 -28 23 0 5 -4 9 -8 9 -5 0 -96 58 -203 129 -205 135 -905 598 -999
660 -30 20 -136 115 -234 211 -400 391 -864 849 -1505 1487 -766 760 -734 723
-738 874 -1 62 3 99 15 130 33 86 -31 18 893 933 414 409 1140 1120 1536 1503
102 99 136 122 1258 864 182 120 337 223 345 228 28 20 564 374 705 466 77 50
336 221 575 380 239 158 563 372 720 475 157 104 305 203 330 222 115 86 197
100 305 53z m4487 -3015 c3 0 46 -27 94 -60 107 -72 81 -55 299 -198 297 -196
820 -541 1304 -861 101 -66 186 -121 188 -121 2 0 9 -5 16 -11 11 -9 404 -269
951 -629 113 -74 183 -126 173 -128 -9 -2 -81 -24 -160 -48 -78 -25 -149 -47
-157 -49 -13 -3 -124 -37 -370 -112 l-85 -26 115 -38 c63 -21 203 -65 310 -99
107 -34 237 -75 289 -92 l93 -30 -33 -21 c-19 -12 -200 -131 -404 -266 -203
-134 -449 -296 -545 -359 -96 -63 -299 -197 -450 -297 -151 -100 -376 -249
-500 -330 -124 -82 -342 -226 -485 -320 -721 -476 -833 -550 -870 -573 -31
-19 -19 -2 56 74 339 347 831 845 1409 1427 366 368 677 688 692 711 81 131
85 293 12 439 -20 38 -93 119 -275 302 -810 817 -1639 1662 -1695 1728 -19 22
-19 22 2 5 11 -10 23 -18 26 -18z m-9274 -34 c-29 -29 -209 -213 -399 -407
-614 -627 -664 -678 -1083 -1099 -295 -297 -421 -431 -444 -471 -85 -150 -70
-356 36 -484 13 -16 356 -363 761 -770 966 -972 1430 -1445 1391 -1419 -18 12
-118 78 -1065 702 -104 69 -291 192 -414 274 -123 81 -227 148 -232 148 -5 0
-9 4 -9 8 0 5 -21 21 -47 36 -27 14 -59 35 -73 45 -14 10 -119 81 -235 157
-115 76 -354 233 -530 349 -176 116 -404 267 -507 334 -104 68 -188 127 -188
132 0 5 7 9 16 9 9 0 48 11 87 24 40 14 189 61 332 106 143 45 267 84 275 88
8 3 20 6 25 7 6 1 21 5 35 10 l25 8 -25 9 c-33 13 -698 219 -728 225 -12 3
-22 8 -22 12 1 3 67 49 148 102 155 101 469 308 917 604 443 292 688 454 905
597 500 329 873 576 975 644 61 40 114 74 118 74 4 0 -16 -24 -45 -54z m1582
-5561 c118 -78 364 -240 545 -360 182 -120 454 -300 605 -400 151 -100 435
-288 630 -417 195 -129 504 -333 685 -453 182 -120 343 -229 359 -242 135
-113 329 -111 478 4 20 15 90 62 155 104 65 42 163 106 218 141 55 36 172 111
260 168 88 57 205 132 260 168 55 36 129 84 165 107 36 23 112 72 170 110 58
37 128 83 155 100 28 18 205 133 395 255 190 123 383 248 430 278 113 72 225
145 396 256 134 87 215 139 389 251 44 29 150 97 235 152 85 55 161 103 168
107 12 7 -102 -104 -203 -199 -22 -20 -107 -101 -189 -178 -81 -78 -167 -160
-190 -181 -70 -66 -392 -375 -520 -497 -67 -64 -142 -136 -167 -160 -66 -62
-407 -389 -502 -481 -44 -43 -154 -149 -246 -237 -91 -87 -203 -194 -247 -238
-528 -508 -560 -539 -775 -743 -89 -85 -226 -216 -304 -291 -149 -144 -200
-177 -288 -188 -61 -8 -150 9 -198 38 -41 25 -192 171 -1074 1036 -202 198
-429 421 -505 495 -133 131 -642 628 -819 799 -47 46 -172 168 -277 270 -105
102 -305 296 -444 431 -139 135 -312 303 -384 373 l-131 128 275 -182 c151
-100 372 -246 490 -324z"/>
<path d="M9418 14355 c-2 -1 -25 -5 -51 -8 -62 -8 -136 -42 -217 -101 -36 -27
-230 -157 -431 -290 -675 -446 -942 -622 -1329 -878 -212 -140 -479 -317 -595
-393 -115 -76 -383 -253 -595 -393 -212 -141 -425 -282 -475 -314 -79 -52
-230 -198 -1223 -1191 -624 -623 -1147 -1151 -1163 -1174 -105 -151 -108 -353
-6 -502 31 -46 2424 -2445 2462 -2468 11 -7 94 -62 185 -121 91 -60 287 -189
435 -287 149 -97 371 -244 495 -326 124 -81 290 -191 370 -243 80 -52 150 -99
157 -105 7 -6 14 -11 16 -11 2 0 114 -72 248 -161 134 -89 357 -235 494 -326
138 -90 355 -234 482 -318 128 -84 236 -155 240 -157 19 -8 158 -104 161 -110
2 -5 8 -8 13 -8 6 0 20 -10 32 -21 12 -12 51 -35 86 -52 54 -25 76 -30 140
-30 42 0 94 5 116 11 48 14 48 14 517 326 205 137 463 309 573 381 223 147
674 445 1195 790 379 251 770 509 1155 763 l250 165 1140 1141 c695 695 1151
1159 1167 1186 31 54 57 140 61 201 8 108 -40 244 -111 321 -21 22 -568 571
-1217 1220 l-1180 1181 -200 132 c-110 73 -306 202 -435 287 -129 85 -320 211
-425 280 -104 68 -262 172 -350 230 -88 58 -286 188 -440 290 -154 101 -327
215 -385 253 -58 38 -199 131 -313 207 -115 76 -213 138 -218 138 -5 0 -9 5
-9 10 0 6 -5 10 -10 10 -6 0 -16 5 -23 11 -7 5 -129 87 -272 181 -143 94 -269
178 -280 188 -34 31 -88 56 -145 69 -80 18 -89 19 -92 16z"/>
</g>
</svg>
