<?xml version="1.0" encoding="utf-8"?>
<!-- Generator: Adobe Illustrator 23.0.1, SVG Export Plug-In . SVG Version: 6.00 Build 0)  -->
<svg version="1.1" id="github" xmlns="http://www.w3.org/2000/svg" xmlns:xlink="http://www.w3.org/1999/xlink" x="0px" y="0px"
	 viewBox="0 0 100 100" style="enable-background:new 0 0 100 100;" xml:space="preserve">
<style type="text/css">
	.st0{fill:#FFFFFF;}
</style>
<title>behance</title>
<circle cx="50" cy="50" r="48"/>
<path id="Behance" class="st0" d="M72.3,37.6H58.4v-3.4h13.9C72.3,34.2,72.3,37.6,72.3,37.6z M49.2,51.8c0.9,1.5,1.4,3.2,1.3,5
	c0,1.9-0.5,3.8-1.5,5.5c-0.6,1-1.5,1.9-2.4,2.7c-1.2,0.8-2.5,1.4-3.9,1.7c-1.6,0.3-3.3,0.5-4.9,0.5H22.3V32.8H39
	c4.2,0.1,7.2,1.3,8.9,3.7c1.1,1.5,1.7,3.4,1.6,5.3c0.1,1.8-0.5,3.6-1.6,5.1c-0.7,0.8-1.6,1.5-2.6,2C46.9,49.4,48.3,50.4,49.2,51.8z
	 M30.3,46.4h7.3c1.3,0.1,2.5-0.3,3.6-0.9c1-0.7,1.5-1.8,1.4-3c0.2-1.4-0.6-2.7-1.9-3.2c-1.3-0.4-2.7-0.6-4.1-0.5h-6.4L30.3,46.4
	L30.3,46.4z M43.3,56.3c0.1-1.6-0.7-3.1-2.2-3.7C40,52.2,38.9,52,37.7,52h-7.4v9.2h7.3c1.2,0.1,2.4-0.1,3.5-0.6
	C42.5,59.9,43.3,58.5,43.3,56.3z M77.5,50.7c0.2,1.6,0.3,3.3,0.2,4.9h-18c0.1,2.5,1,4.2,2.6,5.2c1.1,0.6,2.3,0.9,3.6,0.9
	c1.3,0.1,2.6-0.3,3.6-1.1c0.5-0.5,1-1.1,1.3-1.7h6.6c-0.3,1.7-1.1,3.3-2.4,4.5c-2.2,2.4-5.3,3.6-9.3,3.6c-3.2,0-6.2-1-8.7-3
	c-2.5-2-3.8-5.3-3.8-9.9c0-4.3,1.1-7.6,3.4-9.8c2.3-2.3,5.5-3.5,8.8-3.4c2,0,4,0.4,5.8,1.2C74.6,43.8,76.9,47,77.5,50.7z M71,51.4
	c-0.3-3.1-3-5.4-6.1-5.2c-1.2,0.1-2.4,0.6-3.3,1.4c-1,1-1.6,2.4-1.7,3.8H71z"/>
</svg>
